# xmcd CD database file
#
# Track frame offsets:
#	150
#	15558
#	26705
#	41693
#	59433
#	76433
#	99618
#	114935
#	135425
#	156545
#	174900
#	198648
#	215258
#	232215
#	259235
#	282463
#
# Disc length: 4035 seconds
#
# Revision: 0
# Processed by: cddbd v1.4PL0 Copyright (c) Steve Scherf et al.
# Submitted via: Feurio! 1.65 - http://www.feurio.com
#
DISCID=e60fc110
DTITLE=Mick Martin - Doin' The Backseat Boogie
DYEAR=1991
DGENRE=Blues Rock
TTITLE0=Go Daddy Go
TTITLE1=Backseat Boogie
TTITLE2=Like Lovers
TTITLE3=Guilty
TTITLE4=Tougher Than Life
TTITLE5=Make You Happy
TTITLE6=Need A Vacation
TTITLE7=Can't Believe My Eyes
TTITLE8=Whiskey
TTITLE9=I Don't Care
TTITLE10=Stop Breakin' My Heart
TTITLE11=Don't Worry
TTITLE12=I Love My Baby
TTITLE13=It's Hard Going Up
TTITLE14=Little By Little
TTITLE15=Ridin' On The L and N
EXTD=Blues Rock Records
EXTT0=
EXTT1=
EXTT2=
EXTT3=
EXTT4=
EXTT5=
EXTT6=
EXTT7=
EXTT8=
EXTT9=
EXTT10=
EXTT11=
EXTT12=
EXTT13=
EXTT14=
EXTT15=
PLAYORDER=
